REM DIRINDEX 1\2\6,1\2\7,1\2\8,1\2\9,1\3\10,1\3\11,1\4\12,1\4\13,1\4\14,1\5\15,1\5\16,1\5\17
REM DIRNAME folder01,folder02,folder03,folder04,folder05,folder06,folder07,folder08,folder09,folder10,folder11,folder12,folder13,folder14,folder15,folder16,folder17
TITLE ""
FILE "1400_3_sec04_0385_0400.mp3" MP3
  TRACK 01 AUDIO
    TITLE "0:"
    INDEX 01 00:00:00
  TRACK 02 AUDIO
    TITLE "17:cjc029_5199"
    INDEX 01 00:00:15
  TRACK 03 AUDIO
    TITLE "0:"
    INDEX 01 00:01:60
  TRACK 04 AUDIO
    TITLE "16:cjc029_5200"
    INDEX 01 00:01:64
  TRACK 05 AUDIO
    TITLE "0:"
    INDEX 01 00:02:73
  TRACK 06 AUDIO
    TITLE "17:cjc029_5201"
    INDEX 01 00:03:57
  TRACK 07 AUDIO
    TITLE "0:"
    INDEX 01 00:05:30
  TRACK 08 AUDIO
    TITLE "16:cjc029_5202"
    INDEX 01 00:05:34
  TRACK 09 AUDIO
    TITLE "0:"
    INDEX 01 00:06:51
  TRACK 10 AUDIO
    TITLE "17:cjc029_5203"
    INDEX 01 00:07:37
  TRACK 11 AUDIO
    TITLE "0:"
    INDEX 01 00:10:27
  TRACK 12 AUDIO
    TITLE "16:cjc029_5204"
    INDEX 01 00:10:31
  TRACK 13 AUDIO
    TITLE "0:"
    INDEX 01 00:11:44
  TRACK 14 AUDIO
    TITLE "17:cjc029_5205"
    INDEX 01 00:12:28
  TRACK 15 AUDIO
    TITLE "0:"
    INDEX 01 00:13:51
  TRACK 16 AUDIO
    TITLE "16:cjc029_5206"
    INDEX 01 00:13:57
  TRACK 17 AUDIO
    TITLE "0:"
    INDEX 01 00:15:01
  TRACK 18 AUDIO
    TITLE "17:cjc029_5207"
    INDEX 01 00:15:62
  TRACK 19 AUDIO
    TITLE "0:"
    INDEX 01 00:17:08
  TRACK 20 AUDIO
    TITLE "16:cjc029_5208"
    INDEX 01 00:17:12
  TRACK 21 AUDIO
    TITLE "0:"
    INDEX 01 00:18:29
  TRACK 22 AUDIO
    TITLE "17:cjc029_5209"
    INDEX 01 00:19:16
  TRACK 23 AUDIO
    TITLE "0:"
    INDEX 01 00:20:18
  TRACK 24 AUDIO
    TITLE "16:cjc029_5210"
    INDEX 01 00:20:22
  TRACK 25 AUDIO
    TITLE "0:"
    INDEX 01 00:21:35
  TRACK 26 AUDIO
    TITLE "17:cjc029_5211"
    INDEX 01 00:22:19
  TRACK 27 AUDIO
    TITLE "0:"
    INDEX 01 00:23:63
  TRACK 28 AUDIO
    TITLE "16:cjc029_5212"
    INDEX 01 00:23:67
  TRACK 29 AUDIO
    TITLE "0:"
    INDEX 01 00:25:03
  TRACK 30 AUDIO
    TITLE "17:cjc029_5213"
    INDEX 01 00:25:60
  TRACK 31 AUDIO
    TITLE "0:"
    INDEX 01 00:27:18
  TRACK 32 AUDIO
    TITLE "16:cjc029_5214"
    INDEX 01 00:27:20
  TRACK 33 AUDIO
    TITLE "0:"
    INDEX 01 00:28:33
  TRACK 34 AUDIO
    TITLE "17:cjc029_5215"
    INDEX 01 00:29:19
  TRACK 35 AUDIO
    TITLE "0:"
    INDEX 01 00:31:63
  TRACK 36 AUDIO
    TITLE "16:cjc029_5216"
    INDEX 01 00:31:67
  TRACK 37 AUDIO
    TITLE "0:"
    INDEX 01 00:33:03
  TRACK 38 AUDIO
    TITLE "17:cjc029_5217"
    INDEX 01 00:33:64
  TRACK 39 AUDIO
    TITLE "0:"
    INDEX 01 00:35:06
  TRACK 40 AUDIO
    TITLE "16:cjc029_5218"
    INDEX 01 00:35:10
  TRACK 41 AUDIO
    TITLE "0:"
    INDEX 01 00:36:17
  TRACK 42 AUDIO
    TITLE "17:cjc029_5219"
    INDEX 01 00:36:74
  TRACK 43 AUDIO
    TITLE "0:"
    INDEX 01 00:39:31
  TRACK 44 AUDIO
    TITLE "16:cjc029_5220"
    INDEX 01 00:39:43
  TRACK 45 AUDIO
    TITLE "0:"
    INDEX 01 00:40:40
  TRACK 46 AUDIO
    TITLE "17:cjc029_5221"
    INDEX 01 00:41:24
  TRACK 47 AUDIO
    TITLE "0:"
    INDEX 01 00:43:25
  TRACK 48 AUDIO
    TITLE "16:cjc029_5222"
    INDEX 01 00:43:31
  TRACK 49 AUDIO
    TITLE "0:"
    INDEX 01 00:44:46
  TRACK 50 AUDIO
    TITLE "17:cjc029_5223"
    INDEX 01 00:45:28
  TRACK 51 AUDIO
    TITLE "0:"
    INDEX 01 00:46:72
  TRACK 52 AUDIO
    TITLE "16:cjc029_5224"
    INDEX 01 00:47:05
  TRACK 53 AUDIO
    TITLE "0:"
    INDEX 01 00:48:24
  TRACK 54 AUDIO
    TITLE "17:cjc029_5225"
    INDEX 01 00:49:10
  TRACK 55 AUDIO
    TITLE "0:"
    INDEX 01 00:50:25
  TRACK 56 AUDIO
    TITLE "16:cjc029_5226"
    INDEX 01 00:50:31
  TRACK 57 AUDIO
    TITLE "0:"
    INDEX 01 00:51:62
  TRACK 58 AUDIO
    TITLE "17:cjc029_5227"
    INDEX 01 00:52:49
  TRACK 59 AUDIO
    TITLE "0:"
    INDEX 01 00:53:66
  TRACK 60 AUDIO
    TITLE "16:cjc029_5228"
    INDEX 01 00:53:74
  TRACK 61 AUDIO
    TITLE "0:"
    INDEX 01 00:55:10
  TRACK 62 AUDIO
    TITLE "17:cjc029_5229"
    INDEX 01 00:55:67
  TRACK 63 AUDIO
    TITLE "0:"
    INDEX 01 00:57:11
  TRACK 64 AUDIO
    TITLE "16:cjc029_5230"
    INDEX 01 00:57:23
  TRACK 65 AUDIO
    TITLE "0:"
    INDEX 01 00:58:46
